<?xml version="1.0" ?><svg style="enable-background:new 0 0 512 512;" version="1.1" viewBox="0 0 512 512" xml:space="preserve" xmlns="http://www.w3.org/2000/svg" xmlns:xlink="http://www.w3.org/1999/xlink"><g id="outerdark"><path d="M256.5,20C126.4,20,21,125.4,21,255.5S126.4,491,256.5,491S492,385.6,492,255.5S386.6,20,256.5,20z    M256,460.5c-112.9,0-204.5-91.6-204.5-204.5S143.1,51.5,256,51.5S460.5,143.1,460.5,256S368.9,460.5,256,460.5z" style="fill:#D76F26;"/></g><g id="outerlight"><path d="M423.1,89l-22.4,22.4c37,37,59.8,88.1,59.8,144.6c0,112.9-91.6,204.5-204.5,204.5   c-56.4,0-107.6-22.9-144.6-59.8L90,422.1c92,92,241.1,92,333,0S515,181,423.1,89z" style="opacity:0.2;fill:#FFFFFF;"/></g><g id="innerdark"><circle cx="256" cy="256" r="180" style="fill:#D76F26;"/></g><g id="Etsy"><g id="judwea.tif"><g><path d="M227.4,249.4c15-0.7,29.6-1.3,44.2-2.2c5.5-0.3,9.2-3.2,10.5-8.9c1.3-5.8,3-11.5,4.2-17.4     c0.6-2.8,1.8-3.8,4.6-3.6c2.9,0.2,5.8,0.1,8.5,0.1c0,6.9,0,13.5,0,20c-0.1,16.7-0.2,33.4-0.2,50.1c0,4.8,0.3,4.9-4.7,4.9     c-8.1,0.1-8.1,0.1-10-7.8c-0.7-3-1.3-6-2.1-8.9c-1.8-6.6-5.4-11.2-12.9-11.5c-14-0.5-28-1-42.3-1.5c-0.1,2-0.3,3.5-0.3,5     c0,19.4,0,38.8-0.1,58.2c0,12.2,4.4,18,16.5,18.3c18.6,0.6,37.2,0.2,55.8-0.4c11.2-0.3,19-6.8,23.8-16.6     c3.9-8,7.5-16.1,10.8-24.4c1.5-3.8,3.6-5.5,7.6-4.9c1.7,0.3,3.5,0,5.7,0c-0.6,5.3-1.2,10.1-1.7,14.8c-1.7,14.5-3.7,29-5.1,43.6     c-0.4,4.2-2.8,3.7-5.5,3.6c-31.2-0.5-62.5-1.3-93.7-1.4c-23.3-0.1-46.6,0.8-70,1.3c-2,0-4,0-6.3,0c0-4.2,0-8.1,0-12.4     c5.3-1,10.6-2,15.9-3.2c2.2-0.5,4.4-1.1,6.5-2c3.3-1.3,5.6-3.8,5.8-7.4c0.4-7.2,0.6-14.5,0.7-21.8c0.2-25,0.5-50,0.5-75     c0-18-0.4-35.9-0.8-53.9c-0.2-10.3-3-13.5-13.1-15.5c-4.2-0.8-8.5-1.8-12.7-2.3c-2.7-0.3-3.4-1.5-3.3-4c0.2-2.9,0-5.8,0-9.2     c57.6,1,115,3.4,172.8-1.6c-0.3,5.3-0.6,10.4-0.9,15.6c-0.8,12.6-1.5,25.2-2.2,37.7c-0.3,5.7-0.2,5.8-6,5.8c-0.8,0-1.5-0.1-2.3,0     c-3.1,0.5-4.4-0.8-5.2-3.9c-1.7-7.2-3.7-14.3-6.1-21.2c-1.2-3.6-3.2-7-5.4-10.1c-3-4.3-7.3-6.5-12.7-6.5     c-21.6,0.1-43.1,0.1-64.7,0c-2.8,0-4.9,0.3-4.9,4c0.1,24.2,0,48.5,0,72.7C227.1,246.9,227.3,247.6,227.4,249.4z" style="fill:#E6E7E8;"/></g></g></g><g id="innerlight"><path d="M128.1,382.6c-70.3-70.3-70.3-184.3,0-254.6s184.3-70.3,254.6,0" style="opacity:0.2;fill:#FFFFFF;"/><g/><g/><g/><g/><g/><g/></g></svg>