<?xml version="1.0" ?><!DOCTYPE svg  PUBLIC '-//W3C//DTD SVG 1.1//EN'  'http://www.w3.org/Graphics/SVG/1.1/DTD/svg11.dtd'><svg enable-background="new 0 0 512 512" height="512px" id="Layer_1" version="1.1" viewBox="0 0 512 512" width="512px" xml:space="preserve" xmlns="http://www.w3.org/2000/svg" xmlns:xlink="http://www.w3.org/1999/xlink"><g><path d="M132.951,277.622l-13.149-76.267l-51.592-0.453l2.294,9.938c0,0,23.519,6.693,23.756,8.102   c5.253,31.045,15.617,97.742,15.617,97.742h22.763l57.119-115.328H171.79L132.951,277.622z" fill="#414751"/><polygon fill="#414751" points="233.928,201.357 207.221,201.357 171.04,316.684 197.818,316.684  "/><path d="M407.08,316.234l0.369-115.332l-29.111,0.906l-69.463,114.875h26.893l12.441-21.568h37.455l-0.156,21.119   H407.08z M385.16,273.885h-29.529l30.756-51.3L385.16,273.885z" fill="#414751"/><path d="M267.852,225.801c1.063-1.247,2.434-2.246,4.115-2.996c1.682-0.748,3.672-1.223,5.963-1.421   c2.293-0.198,4.785-0.085,7.477,0.341c1.955,0.311,3.996,0.795,6.121,1.451s4.232,1.485,6.324,2.484   c2.094,1,4.096,2.158,6.012,3.476c1.914,1.319,3.643,2.769,5.186,4.349l3.902-23.351c-3.33-2.022-7.049-3.72-11.164-5.094   c-4.115-1.372-8.91-2.493-14.389-3.36c-5.578-0.882-10.967-1.081-16.168-0.595c-5.205,0.485-9.93,1.782-14.17,3.89   c-4.245,2.106-7.817,5.081-10.719,8.924c-2.9,3.844-4.839,8.681-5.813,14.512c-1.243,7.445-0.287,14.115,2.871,20.012   c3.156,5.898,8.54,11.32,16.149,16.264c2.994,1.918,5.771,3.773,8.334,5.568s4.736,3.584,6.523,5.361   c1.785,1.781,3.123,3.619,4.01,5.524c0.885,1.905,1.148,3.949,0.781,6.136c-0.27,1.614-0.887,3.053-1.852,4.315   c-0.963,1.265-2.275,2.285-3.938,3.063s-3.654,1.279-5.975,1.5c-2.322,0.22-4.977,0.095-7.957-0.379   c-5.09-0.805-9.969-2.552-14.641-5.244c-4.672-2.688-8.818-6.271-12.439-10.744l-4.175,24.988c3.467,2.687,7.72,4.965,12.756,6.832   s10.44,3.256,16.212,4.17c5.625,0.89,11.064,1.162,16.32,0.819c5.254-0.343,10.008-1.528,14.264-3.554   c4.256-2.023,7.848-4.98,10.785-8.874c2.934-3.892,4.924-8.961,5.967-15.208c0.758-4.529,0.783-8.602,0.082-12.212   s-2.029-6.935-3.982-9.97c-1.953-3.033-4.43-5.871-7.428-8.51c-2.998-2.64-6.445-5.229-10.338-7.769   c-2.857-1.841-5.402-3.593-7.635-5.256s-4.096-3.294-5.584-4.892c-1.49-1.6-2.578-3.215-3.258-4.846   c-0.684-1.632-0.867-3.383-0.553-5.258C266.117,228.531,266.789,227.05,267.852,225.801z" fill="#414751"/><rect fill="#414751" height="86.853" width="448.209" x="31.451" y="331.561"/><rect fill="#414751" height="86.851" width="448.209" x="31.451" y="99.965"/><path d="M1.125,69.638v380.7h509.75v-380.7H1.125z M497.898,436.143h-0.002H15.32v-353.6h482.578V436.143z" fill="#414751"/></g></svg>